<?xml version="1.0" encoding="UTF-8"?>
<svg xmlns="http://www.w3.org/2000/svg" xmlns:xlink="http://www.w3.org/1999/xlink" width="1555.67pt" height="249.26pt" viewBox="0 0 1555.67 249.26" version="1.1">
<defs>
<clipPath id="clip1">
  <path d="M 1495 63 L 1555.671875 63 L 1555.671875 139 L 1495 139 Z M 1495 63 "/>
</clipPath>
<clipPath id="clip2">
  <path d="M 1326 201 L 1355 201 L 1355 249.261719 L 1326 249.261719 Z M 1326 201 "/>
</clipPath>
<clipPath id="clip3">
  <path d="M 1450 199 L 1482 199 L 1482 249.261719 L 1450 249.261719 Z M 1450 199 "/>
</clipPath>
<clipPath id="clip4">
  <path d="M 1521 199 L 1555.671875 199 L 1555.671875 249.261719 L 1521 249.261719 Z M 1521 199 "/>
</clipPath>
</defs>
<g id="surface1">
<path style=" stroke:none;fill-rule:nonzero;fill:rgb(6.666565%,17.254639%,31.764221%);fill-opacity:1;" d="M 299.164063 140.992188 C 263.835938 140.992188 241.816406 117.28125 241.816406 90.832031 C 241.816406 65.453125 265.828125 36.691406 299.777344 36.691406 C 314.152344 36.691406 329.296875 42.503906 332.5 44.953125 C 333.570313 45.875 335.097656 56.882813 335.410156 66.359375 C 335.410156 67.117188 332.960938 66.972656 332.800781 66.511719 C 330.203125 54.589844 318.890625 41.28125 296.101563 41.28125 C 273.167969 41.28125 255.882813 57.492188 255.882813 85.167969 C 255.882813 118.964844 278.671875 136.09375 300.539063 136.09375 C 316.445313 136.09375 332.195313 126.605469 333.421875 111.007813 C 333.421875 110.554688 336.328125 110.402344 336.328125 111.3125 C 335.867188 120.792969 334.324219 131.808594 333.121094 132.722656 C 327.605469 136.855469 317.96875 140.992188 299.164063 140.992188 "/>
<path style=" stroke:none;fill-rule:nonzero;fill:rgb(6.666565%,17.254639%,31.764221%);fill-opacity:1;" d="M 363.535156 105.648438 L 384.800781 105.648438 L 375.316406 79.972656 Z M 384.800781 138.539063 C 383.878906 138.839844 384.34375 135.640625 384.800781 135.640625 C 389.996094 135.007813 393.203125 135.777344 393.203125 132.722656 C 393.203125 129.207031 391.21875 124.167969 389.234375 118.351563 L 386.472656 110.246094 L 361.707031 110.246094 L 358.1875 118.351563 C 355.285156 125.082031 353.597656 129.515625 353.597656 132.578125 C 353.597656 135.171875 356.503906 135.171875 361.40625 135.640625 C 362.171875 135.640625 362.171875 138.839844 361.246094 138.539063 C 357.738281 138.085938 352.988281 137.917969 348.097656 137.917969 C 341.519531 137.917969 340.449219 137.917969 335.40625 138.539063 C 334.496094 138.695313 334.953125 135.640625 335.40625 135.640625 C 343.046875 135.007813 347.027344 130.886719 352.835938 118.046875 L 378.222656 62.539063 C 378.527344 61.773438 380.050781 61.613281 380.367188 62.539063 L 402.386719 118.046875 C 407.882813 130.378906 407.0625 134.800781 416.21875 135.640625 C 416.667969 135.679688 416.980469 138.839844 416.0625 138.539063 C 412.382813 138.085938 409.570313 137.917969 404.523438 137.917969 C 397.945313 137.917969 389.6875 137.917969 384.800781 138.539063 "/>
<path style=" stroke:none;fill-rule:nonzero;fill:rgb(6.666565%,17.254639%,31.764221%);fill-opacity:1;" d="M 419.304688 133.59375 C 418.652344 133.183594 418.398438 124.621094 418.191406 116.5 C 418.128906 115.734375 420.890625 115.8125 420.925781 116.125 C 422.789063 127.632813 429.644531 136.261719 441.542969 135.285156 C 449.769531 134.601563 455.007813 129.257813 454.390625 121.933594 C 452.820313 102.890625 419.296875 105.671875 417.5625 84.792969 C 416.691406 74.277344 425.238281 62.675781 439.257813 61.515625 C 445.96875 60.960938 450.402344 62.589844 454.554688 64.539063 C 455.515625 65.074219 457.246094 71.222656 457.898438 79 C 457.929688 79.449219 454.878906 79.703125 454.851563 79.257813 C 452.789063 70.980469 446.816406 65.652344 438.589844 66.320313 C 431.429688 66.921875 426.382813 70.867188 426.960938 77.878906 C 428.476563 96.164063 461.355469 92.984375 463.175781 114.929688 C 464.210938 127.421875 455.351563 139.046875 440.882813 140.253906 C 432.488281 140.953125 425.660156 138.132813 419.304688 133.59375 "/>
<path style=" stroke:none;fill-rule:nonzero;fill:rgb(6.666565%,17.254639%,31.764221%);fill-opacity:1;" d="M 518.664063 138.539063 C 514.390625 138.539063 507.191406 137.917969 498.628906 137.917969 C 487.007813 137.917969 473.09375 137.917969 464.535156 138.539063 C 463.621094 138.539063 464.074219 135.640625 464.535156 135.640625 C 476.164063 134.261719 477.226563 132.722656 477.226563 118.195313 L 477.226563 83.644531 C 477.226563 69.117188 476.164063 67.277344 464.535156 66.054688 C 464.074219 66.054688 463.621094 62.839844 464.535156 63 C 473.09375 63.761719 486.550781 63.914063 498.171875 63.914063 C 506.429688 63.914063 514.390625 63.601563 521.417969 63 C 520.65625 65.453125 520.65625 68.65625 520.65625 70.941406 C 520.65625 72.171875 520.496094 75.527344 520.65625 76.296875 C 520.65625 76.609375 517.746094 76.757813 517.746094 76.457031 C 516.832031 71.402344 514.992188 68.96875 500.164063 68.96875 L 490.21875 68.96875 C 489.761719 71.5625 489.617188 75.828125 489.617188 83.027344 L 489.617188 97.09375 L 497.253906 97.09375 C 510.105469 97.09375 511.015625 96.789063 512.246094 91.894531 C 512.246094 91.585938 515.148438 91.433594 514.992188 92.203125 C 514.539063 93.894531 514.390625 98.621094 514.390625 101.222656 L 514.390625 107.800781 C 514.6875 107.953125 511.480469 108.109375 511.480469 107.953125 C 510.414063 101.992188 509.492188 101.535156 497.253906 101.535156 L 489.617188 101.535156 L 489.617188 116.671875 C 489.617188 131.355469 490.378906 132.722656 495.578125 132.722656 L 501.535156 132.722656 C 519.125 132.722656 519.585938 130.285156 521.265625 122.792969 C 521.265625 122.636719 524.324219 122.636719 524.324219 123.089844 C 523.867188 126.003906 522.636719 133.492188 521.878906 135.777344 C 521.417969 138.085938 520.65625 138.539063 518.664063 138.539063 "/>
<path style=" stroke:none;fill-rule:nonzero;fill:rgb(6.666565%,17.254639%,31.764221%);fill-opacity:1;" d="M 953.933594 101.050781 C 951.949219 101.050781 951.03125 100.886719 949.65625 100.886719 L 949.65625 82.539063 C 949.65625 74.277344 949.96875 69.851563 950.578125 67.703125 C 952.253906 67.5625 952.714844 67.410156 954.390625 67.410156 C 967.703125 67.410156 975.039063 71.988281 975.039063 84.839844 C 975.039063 95.234375 969.074219 101.050781 953.933594 101.050781 M 1082.730469 63.113281 C 1079.359375 63.585938 1074.160156 63.890625 1069.269531 63.890625 C 1062.550781 63.890625 1058.71875 63.890625 1054.128906 63.113281 C 1053.210938 62.8125 1053.210938 65.871094 1053.96875 66.03125 C 1063.910156 67.097656 1065.441406 70.464844 1065.441406 83.613281 L 1065.441406 119.238281 L 1012.070313 64.039063 C 1005.5 64.039063 996.625 63.890625 991.882813 63.113281 C 990.972656 62.8125 991.277344 66.03125 991.738281 66.03125 C 996.925781 66.640625 1006.570313 73.679688 1006.570313 78.875 L 1006.570313 118.179688 C 1006.570313 130.664063 1004.601563 134.339844 996.464844 135.121094 C 996.277344 135.15625 995.214844 135.199219 994.4375 134.652344 C 976.996094 120.351563 977.203125 111.199219 973.101563 100.738281 C 982.125 96.921875 987.632813 89.425781 987.632813 81.78125 C 987.632813 69.550781 976.601563 63.90625 955.964844 62.976563 C 944.257813 62.433594 931.78125 61.96875 924.933594 63.230469 C 924.011719 63.402344 924.777344 66.285156 925.398438 65.980469 C 927.070313 65.679688 928.503906 65.910156 929.722656 65.910156 C 935.078125 65.910156 937.464844 70.300781 937.464844 83.613281 L 937.464844 118.179688 C 937.464844 132.703125 935.640625 134.535156 925.695313 135.601563 C 925.238281 135.601563 924.777344 138.820313 925.695313 138.511719 C 930.597656 137.898438 938.085938 137.898438 944.824219 137.898438 C 949.707031 137.898438 957.507813 138.046875 961.019531 138.511719 C 961.941406 138.820313 961.636719 135.601563 961.1875 135.601563 C 950.773438 134.683594 949.707031 131.933594 949.707031 118.179688 L 949.707031 105.324219 C 951.078125 105.476563 951.839844 105.476563 954.140625 105.476563 C 956.433594 105.476563 959.949219 105.023438 962.699219 104.574219 C 967.464844 121.589844 984.265625 135.976563 991.792969 138.433594 C 991.933594 138.480469 992.800781 138.5625 992.800781 138.5625 L 994.863281 138.492188 C 994.894531 138.492188 1004.738281 137.898438 1011.460938 137.898438 C 1016.199219 137.898438 1020.339844 138.046875 1023.851563 138.511719 C 1024.761719 138.820313 1024.460938 135.601563 1024.160156 135.601563 C 1013.601563 134.683594 1012.539063 130.414063 1012.539063 118.179688 L 1012.539063 81.3125 L 1069.570313 139.28125 C 1070.5 140.191406 1072.328125 139.578125 1072.328125 139.121094 C 1071.710938 134.222656 1071.558594 123.824219 1071.558594 118.179688 L 1071.558594 83.613281 C 1071.558594 71.375 1072.480469 66.796875 1083.179688 66.03125 C 1083.5 66.03125 1084.261719 62.976563 1082.730469 63.113281 "/>
<path style=" stroke:none;fill-rule:nonzero;fill:rgb(6.666565%,17.254639%,31.764221%);fill-opacity:1;" d="M 745.890625 134.203125 C 745.261719 133.757813 745.390625 130.824219 745.636719 122.710938 C 745.621094 121.945313 748.25 122.21875 748.386719 122.488281 C 753.28125 132.574219 756.234375 135.789063 767.574219 135.285156 C 774.234375 134.972656 781.0625 130.035156 780.867188 122.691406 C 780.398438 103.585938 746.765625 104.433594 746.242188 83.484375 C 745.972656 72.945313 755.171875 61.84375 769.238281 61.492188 C 775.96875 61.324219 780.292969 63.203125 784.328125 65.398438 C 785.261719 65.988281 786.636719 72.222656 786.832031 80.023438 C 786.847656 80.484375 783.792969 80.558594 783.777344 80.09375 C 782.195313 71.726563 776.535156 66.054688 768.292969 66.265625 C 761.105469 66.441406 755.839844 70.089844 756.023438 77.128906 C 756.484375 95.472656 789.492188 94.179688 790.035156 116.195313 C 790.359375 128.722656 781.152344 139.828125 766.625 140.203125 C 758.21875 140.40625 751.972656 139.09375 745.890625 134.203125 "/>
<path style=" stroke:none;fill-rule:nonzero;fill:rgb(6.666565%,17.254639%,31.764221%);fill-opacity:1;" d="M 642.078125 139.882813 C 641.78125 140.65625 639.945313 140.960938 639.492188 139.738281 L 616.394531 74.898438 L 587.804688 139.882813 C 587.496094 140.65625 585.511719 140.960938 585.046875 139.738281 L 555.539063 66.039063 C 548.195313 47.679688 545.746094 42.480469 533.671875 41.402344 C 532.90625 41.402344 532.292969 38.65625 533.820313 38.800781 C 538.097656 39.421875 544.214844 39.71875 550.183594 39.71875 C 558.4375 39.71875 568.683594 39.574219 574.652344 38.800781 C 576.179688 38.65625 575.257813 41.402344 574.800781 41.402344 C 567.773438 42.023438 563.9375 42.9375 563.9375 47.058594 C 563.9375 50.28125 567.460938 60.824219 569.453125 65.726563 L 591.316406 120.160156 L 613.949219 67.863281 L 613.183594 66.039063 C 605.691406 48.140625 604.011719 42.480469 592.398438 41.402344 C 591.929688 41.402344 591.316406 38.65625 592.539063 38.800781 C 596.972656 39.421875 602.941406 39.71875 608.910156 39.71875 C 617.160156 39.71875 628.78125 39.574219 634.746094 38.800781 C 635.976563 38.507813 635.507813 41.402344 635.054688 41.402344 C 625.566406 42.171875 622.511719 43.242188 622.511719 47.832031 C 622.511719 51.195313 624.042969 56.691406 627.097656 65.726563 L 645.605469 120.160156 L 667.480469 64.957031 C 670.988281 55.933594 672.972656 51.195313 672.972656 47.21875 C 672.972656 43.394531 670.535156 42.171875 663.039063 41.402344 C 662.578125 41.402344 661.664063 38.65625 663.195313 38.800781 C 667.621094 39.421875 672.214844 39.71875 678.335938 39.71875 C 686.738281 39.71875 686.574219 39.574219 692.707031 38.800781 C 693.925781 38.507813 693.320313 41.402344 692.859375 41.402344 C 683.230469 42.324219 680.167969 48.898438 672.972656 66.039063 L 642.078125 139.882813 "/>
<path style=" stroke:none;fill-rule:nonzero;fill:rgb(6.666565%,17.254639%,31.764221%);fill-opacity:1;" d="M 733.824219 138.511719 C 729.550781 138.511719 722.363281 137.898438 713.800781 137.898438 C 702.171875 137.898438 688.265625 137.898438 679.695313 138.511719 C 678.777344 138.511719 679.246094 135.605469 679.695313 135.605469 C 691.316406 134.226563 692.390625 132.703125 692.390625 118.179688 L 692.390625 83.613281 C 692.390625 69.09375 691.316406 67.25 679.695313 66.03125 C 679.246094 66.03125 678.777344 62.816406 679.695313 62.976563 C 688.265625 63.730469 701.71875 63.886719 713.335938 63.886719 C 721.601563 63.886719 729.550781 63.585938 736.585938 62.976563 C 735.820313 65.414063 735.820313 68.621094 735.820313 70.914063 C 735.820313 72.136719 735.675781 75.507813 735.820313 76.273438 C 735.820313 76.589844 732.90625 76.734375 732.90625 76.421875 C 731.996094 71.375 730.15625 68.929688 715.328125 68.929688 L 705.390625 68.929688 C 704.933594 71.53125 704.777344 75.808594 704.777344 83 L 704.777344 97.066406 L 712.425781 97.066406 C 725.265625 97.066406 726.1875 96.765625 727.410156 91.878906 C 727.410156 91.5625 730.320313 91.417969 730.15625 92.175781 C 729.703125 93.851563 729.550781 98.597656 729.550781 101.203125 L 729.550781 107.773438 C 729.851563 107.925781 726.648438 108.078125 726.648438 107.925781 C 725.578125 101.960938 724.65625 101.507813 712.425781 101.507813 L 704.777344 101.507813 L 704.777344 116.644531 C 704.777344 131.328125 705.546875 132.703125 710.738281 132.703125 L 716.703125 132.703125 C 734.285156 132.703125 734.75 130.261719 736.429688 122.761719 C 736.429688 122.601563 739.488281 122.601563 739.488281 123.0625 C 739.03125 125.96875 737.816406 133.464844 737.039063 135.757813 C 736.585938 138.050781 735.820313 138.511719 733.824219 138.511719 "/>
<path style=" stroke:none;fill-rule:nonzero;fill:rgb(6.666565%,17.254639%,31.764221%);fill-opacity:1;" d="M 858.484375 78.257813 C 858.484375 78.726563 855.730469 78.558594 855.730469 78.257813 C 854.652344 73.21875 852.5625 69.699219 840.328125 69.699219 L 832.113281 69.699219 L 832.113281 118.179688 C 832.113281 131.78125 833.039063 134.683594 843.738281 135.601563 C 844.195313 135.601563 844.507813 138.660156 843.28125 138.511719 C 839.757813 138.046875 831.960938 137.898438 827.070313 137.898438 C 820.496094 137.898438 812.996094 137.898438 808.253906 138.511719 C 807.023438 138.820313 807.648438 135.601563 808.101563 135.601563 C 818.195313 134.535156 819.730469 132.539063 819.730469 118.179688 L 819.730469 69.699219 L 810.890625 69.699219 C 799.128906 69.699219 796.414063 73.058594 794.890625 78.402344 C 794.285156 78.558594 791.976563 78.558594 792.136719 78.105469 C 792.597656 75.660156 793.007813 69.851563 792.898438 66.640625 C 792.875 65.945313 792.597656 64.683594 792.289063 63.316406 C 792.183594 62.839844 794.664063 62.855469 795.042969 63.175781 C 797.410156 65.09375 801.238281 64.324219 810.890625 64.339844 L 840.328125 64.339844 C 849.597656 64.324219 855.246094 65.09375 856.488281 63.175781 C 856.753906 62.753906 859.554688 62.855469 859.238281 63.472656 C 858.636719 65.917969 858.324219 67.25 858.324219 71.074219 C 858.324219 72.910156 858.324219 76.734375 858.484375 78.257813 "/>
<path style=" stroke:none;fill-rule:nonzero;fill:rgb(6.666565%,17.254639%,31.764221%);fill-opacity:1;" d="M 916.285156 138.511719 C 912.003906 138.511719 904.820313 137.898438 896.25 137.898438 C 884.628906 137.898438 870.710938 137.898438 862.148438 138.511719 C 861.234375 138.511719 861.691406 135.605469 862.148438 135.605469 C 873.777344 134.226563 874.84375 132.703125 874.84375 118.179688 L 874.84375 83.613281 C 874.84375 69.09375 873.777344 67.25 862.148438 66.03125 C 861.691406 66.03125 861.234375 62.816406 862.148438 62.976563 C 870.710938 63.730469 884.167969 63.886719 895.789063 63.886719 C 904.050781 63.886719 912.003906 63.585938 919.039063 62.976563 C 918.265625 65.414063 918.265625 68.621094 918.265625 70.914063 C 918.265625 72.136719 918.117188 75.507813 918.265625 76.273438 C 918.265625 76.589844 915.363281 76.734375 915.363281 76.421875 C 914.449219 71.375 912.609375 68.929688 897.777344 68.929688 L 887.839844 68.929688 C 887.378906 71.53125 887.21875 75.808594 887.21875 83 L 887.21875 97.066406 L 894.871094 97.066406 C 907.730469 97.066406 908.632813 96.765625 909.863281 91.878906 C 909.863281 91.5625 912.769531 91.417969 912.609375 92.175781 C 912.148438 93.851563 912.003906 98.597656 912.003906 101.203125 L 912.003906 107.773438 C 912.316406 107.925781 909.09375 108.078125 909.09375 107.925781 C 908.023438 101.960938 907.105469 101.507813 894.871094 101.507813 L 887.21875 101.507813 L 887.21875 116.644531 C 887.21875 131.328125 887.996094 132.703125 893.195313 132.703125 L 899.152344 132.703125 C 916.742188 132.703125 917.207031 130.261719 918.886719 122.761719 C 918.886719 122.601563 921.9375 122.601563 921.9375 123.0625 C 921.480469 125.96875 920.25 133.464844 919.492188 135.757813 C 919.039063 138.050781 918.265625 138.511719 916.285156 138.511719 "/>
<path style=" stroke:none;fill-rule:nonzero;fill:rgb(6.666565%,17.254639%,31.764221%);fill-opacity:1;" d="M 1252.96875 134.234375 C 1252.339844 133.792969 1252.460938 130.859375 1252.71875 122.742188 C 1252.699219 121.972656 1255.328125 122.242188 1255.46875 122.535156 C 1260.359375 132.601563 1263.308594 135.835938 1274.648438 135.316406 C 1281.300781 135.007813 1288.128906 130.0625 1287.960938 122.726563 C 1287.480469 103.617188 1253.839844 104.464844 1253.320313 83.523438 C 1253.050781 72.96875 1262.25 61.882813 1276.308594 61.523438 C 1283.050781 61.359375 1287.371094 63.238281 1291.398438 65.425781 C 1292.339844 66.019531 1293.71875 72.246094 1293.921875 80.054688 C 1293.921875 80.507813 1290.871094 80.589844 1290.859375 80.128906 C 1289.269531 71.753906 1283.628906 66.089844 1275.371094 66.292969 C 1268.179688 66.46875 1262.921875 70.121094 1263.109375 77.152344 C 1263.558594 95.496094 1296.558594 94.21875 1297.121094 116.230469 C 1297.429688 128.757813 1288.230469 139.863281 1273.710938 140.230469 C 1265.289063 140.445313 1259.058594 139.136719 1252.96875 134.234375 "/>
<path style=" stroke:none;fill-rule:nonzero;fill:rgb(6.666565%,17.254639%,31.764221%);fill-opacity:1;" d="M 1130.058594 42.96875 C 1129.28125 46.023438 1128.980469 53.0625 1128.980469 64.375 L 1128.980469 89.753906 C 1130.960938 89.921875 1132.191406 89.753906 1134.640625 89.753906 C 1157.730469 89.753906 1165.671875 81.355469 1165.671875 68.808594 C 1165.671875 48.011719 1152.070313 42.507813 1136.78125 42.507813 C 1134.488281 42.507813 1132.640625 42.664063 1130.058594 42.96875 M 1144.269531 93.269531 C 1141.671875 93.894531 1138.148438 94.039063 1134.789063 94.039063 C 1131.878906 94.039063 1130.960938 93.894531 1128.980469 93.738281 L 1128.980469 111.789063 C 1128.980469 133.644531 1128.828125 134.730469 1143.050781 135.953125 C 1143.820313 135.953125 1144.121094 139.15625 1142.890625 138.851563 C 1138 138.238281 1130.359375 137.929688 1123.941406 137.929688 C 1114.898438 137.929688 1107.878906 137.929688 1101.460938 138.851563 C 1099.929688 139.003906 1100.539063 136.09375 1101.300781 135.953125 C 1114.769531 134.414063 1115.679688 134.730469 1115.679688 111.789063 L 1115.679688 65.746094 C 1115.679688 48.46875 1115.21875 43.121094 1106.5 43.121094 C 1104.96875 43.121094 1102.839844 43.273438 1100.691406 43.738281 C 1100.230469 43.882813 1099.011719 41.4375 1100.539063 40.980469 C 1106.800781 38.988281 1122.089844 38.382813 1138.769531 38.382813 C 1161.101563 38.382813 1179.441406 45.105469 1179.441406 62.230469 C 1179.441406 70.796875 1172.570313 83.804688 1156.648438 90.21875 C 1171.488281 111.019531 1172.308594 155.894531 1209.511719 158.34375 C 1215.011719 158.691406 1215.75 158.3125 1221.320313 156.800781 C 1222.261719 156.550781 1223.539063 158.949219 1222.378906 159.402344 C 1214.160156 162.652344 1208.878906 163.257813 1200.960938 162.621094 C 1160.5 159.332031 1156.96875 112.546875 1144.269531 93.269531 "/>
<path style=" stroke:none;fill-rule:nonzero;fill:rgb(6.666565%,17.254639%,31.764221%);fill-opacity:1;" d="M 1240.109375 138.546875 C 1235.820313 138.546875 1228.640625 137.929688 1220.070313 137.929688 C 1208.460938 137.929688 1196.421875 137.929688 1187.851563 138.546875 C 1186.929688 138.546875 1187.398438 135.640625 1187.851563 135.640625 C 1199.480469 134.257813 1198.671875 132.730469 1198.671875 118.203125 L 1198.671875 83.652344 C 1198.671875 69.121094 1197.601563 67.285156 1185.96875 66.0625 C 1185.519531 66.0625 1185.050781 62.851563 1185.96875 63 C 1194.539063 63.765625 1207.988281 63.921875 1219.621094 63.921875 C 1227.871094 63.921875 1235.820313 63.601563 1242.859375 63 C 1242.101563 65.453125 1242.101563 68.660156 1242.101563 70.953125 C 1242.101563 72.171875 1241.941406 75.539063 1242.101563 76.304688 C 1242.101563 76.617188 1239.191406 76.757813 1239.191406 76.457031 C 1238.269531 71.40625 1236.441406 68.96875 1221.609375 68.96875 L 1211.671875 68.96875 C 1211.199219 71.5625 1211.050781 75.835938 1211.050781 83.027344 L 1211.050781 97.101563 L 1218.710938 97.101563 C 1231.550781 97.101563 1232.460938 96.796875 1233.679688 91.902344 C 1233.679688 91.585938 1236.589844 91.445313 1236.441406 92.214844 C 1235.980469 93.898438 1235.820313 98.625 1235.820313 101.222656 L 1235.820313 107.808594 C 1236.128906 107.960938 1232.921875 108.113281 1232.921875 107.960938 C 1231.851563 101.996094 1230.929688 101.539063 1218.710938 101.539063 L 1211.050781 101.539063 L 1211.050781 116.675781 C 1211.050781 131.359375 1211.808594 132.730469 1217.019531 132.730469 L 1222.980469 132.730469 C 1240.558594 132.730469 1241.03125 130.289063 1242.710938 122.792969 C 1242.710938 122.636719 1245.761719 122.636719 1245.761719 123.097656 C 1245.308594 126.003906 1244.089844 133.496094 1243.320313 135.785156 C 1242.859375 138.09375 1242.101563 138.546875 1240.109375 138.546875 "/>
<path style=" stroke:none;fill-rule:nonzero;fill:rgb(6.666565%,17.254639%,31.764221%);fill-opacity:1;" d="M 1354.261719 138.546875 C 1349.980469 138.546875 1342.800781 137.929688 1334.230469 137.929688 C 1322.609375 137.929688 1308.691406 137.929688 1300.140625 138.546875 C 1299.21875 138.546875 1299.671875 135.640625 1300.140625 135.640625 C 1311.761719 134.257813 1312.828125 132.730469 1312.828125 118.203125 L 1312.828125 83.652344 C 1312.828125 69.121094 1311.761719 67.285156 1300.140625 66.0625 C 1299.671875 66.0625 1299.21875 62.851563 1300.140625 63 C 1308.691406 63.765625 1322.148438 63.921875 1333.78125 63.921875 C 1342.03125 63.921875 1349.980469 63.601563 1357.019531 63 C 1356.25 65.453125 1356.25 68.660156 1356.25 70.953125 C 1356.25 72.171875 1356.101563 75.539063 1356.25 76.304688 C 1356.25 76.617188 1353.351563 76.757813 1353.351563 76.457031 C 1352.429688 71.40625 1350.589844 68.96875 1335.761719 68.96875 L 1325.820313 68.96875 C 1325.359375 71.5625 1325.21875 75.835938 1325.21875 83.027344 L 1325.21875 97.101563 L 1332.859375 97.101563 C 1345.710938 97.101563 1346.621094 96.796875 1347.851563 91.902344 C 1347.851563 91.585938 1350.761719 91.445313 1350.589844 92.214844 C 1350.128906 93.898438 1349.980469 98.625 1349.980469 101.222656 L 1349.980469 107.808594 C 1350.289063 107.960938 1347.078125 108.113281 1347.078125 107.960938 C 1346 101.996094 1345.101563 101.539063 1332.859375 101.539063 L 1325.21875 101.539063 L 1325.21875 116.675781 C 1325.21875 131.359375 1325.980469 132.730469 1331.171875 132.730469 L 1337.140625 132.730469 C 1354.71875 132.730469 1355.179688 130.289063 1356.871094 122.792969 C 1356.871094 122.636719 1359.929688 122.636719 1359.929688 123.097656 C 1359.46875 126.003906 1358.238281 133.496094 1357.480469 135.785156 C 1357.019531 138.09375 1356.25 138.546875 1354.261719 138.546875 "/>
<path style=" stroke:none;fill-rule:nonzero;fill:rgb(6.666565%,17.254639%,31.764221%);fill-opacity:1;" d="M 1386.789063 67.738281 C 1386.179688 69.886719 1385.890625 74.320313 1385.890625 82.574219 L 1385.890625 100.925781 C 1387.25 100.925781 1388.171875 101.078125 1390.160156 101.078125 C 1405.289063 101.078125 1411.261719 95.265625 1411.261719 84.859375 C 1411.261719 72.027344 1403.921875 67.4375 1390.621094 67.4375 C 1388.941406 67.4375 1388.46875 67.578125 1386.789063 67.738281 M 1390.308594 105.515625 C 1388.011719 105.515625 1387.25 105.515625 1385.890625 105.363281 L 1385.890625 118.203125 C 1385.890625 131.96875 1386.941406 134.730469 1397.351563 135.640625 C 1397.808594 135.640625 1398.121094 138.851563 1397.191406 138.546875 C 1393.679688 138.097656 1385.890625 137.929688 1380.980469 137.929688 C 1374.261719 137.929688 1366.769531 137.929688 1361.871094 138.546875 C 1360.960938 138.851563 1361.410156 135.640625 1361.871094 135.640625 C 1371.808594 134.566406 1373.648438 132.734375 1373.648438 118.203125 L 1373.648438 83.644531 C 1373.648438 70.34375 1371.21875 65.792969 1365.859375 65.792969 C 1364.640625 65.792969 1364.671875 65.820313 1362.988281 66.121094 C 1362.378906 66.4375 1361.648438 63.625 1362.539063 63.375 C 1367.789063 61.925781 1380.410156 63.078125 1392.148438 62.992188 C 1412.78125 62.867188 1423.808594 69.574219 1423.808594 81.8125 C 1423.808594 89.445313 1418.300781 96.949219 1409.269531 100.773438 C 1415.390625 116.371094 1431.789063 137.476563 1445.101563 137.476563 C 1445.558594 137.476563 1446.019531 140.378906 1445.101563 140.378906 C 1420.019531 140.378906 1403.921875 122.636719 1398.871094 104.589844 C 1396.121094 105.058594 1392.601563 105.515625 1390.308594 105.515625 "/>
<path style=" stroke:none;fill-rule:nonzero;fill:rgb(6.666565%,17.254639%,31.764221%);fill-opacity:1;" d="M 1463.78125 139.308594 C 1463.628906 139.765625 1461.789063 140.070313 1461.328125 139.15625 L 1437.179688 83.804688 C 1431.671875 71.257813 1428.140625 66.828125 1418.980469 66.066406 C 1418.519531 66.066406 1418.050781 62.855469 1418.980469 63.152344 C 1422.640625 63.609375 1429.53125 63.921875 1434.269531 63.921875 C 1440.988281 63.921875 1449.410156 63.921875 1454 63.152344 C 1454.910156 62.855469 1454.910156 65.90625 1454.140625 66.066406 C 1449.101563 66.667969 1446.199219 66.972656 1446.199219 70.027344 C 1446.199219 72.175781 1446.800781 76.148438 1450.019531 83.496094 L 1466.691406 121.257813 L 1483.199219 83.496094 C 1486.871094 74.925781 1487.339844 72.78125 1487.339844 70.027344 C 1487.339844 67.429688 1484.878906 66.519531 1479.839844 66.066406 C 1479.378906 66.066406 1478.921875 62.855469 1479.839844 63.152344 C 1483.359375 63.609375 1488.101563 63.921875 1492.980469 63.921875 C 1499.871094 63.921875 1500.261719 63.761719 1505.511719 63.835938 C 1506.488281 63.847656 1506.289063 66.066406 1505.828125 66.066406 C 1498.648438 66.828125 1494.511719 70.34375 1488.550781 83.804688 L 1463.78125 139.308594 "/>
<g clip-path="url(#clip1)" clip-rule="nonzero">
<path style=" stroke:none;fill-rule:nonzero;fill:rgb(6.666565%,17.254639%,31.764221%);fill-opacity:1;" d="M 1550.019531 138.546875 C 1545.738281 138.546875 1538.550781 137.929688 1529.980469 137.929688 C 1518.351563 137.929688 1504.449219 137.929688 1495.878906 138.546875 C 1494.96875 138.546875 1495.421875 135.640625 1495.878906 135.640625 C 1507.511719 134.257813 1508.570313 132.730469 1508.570313 118.203125 L 1508.570313 83.652344 C 1508.570313 69.121094 1507.511719 67.285156 1495.878906 66.0625 C 1495.421875 66.0625 1495.039063 63.839844 1495.96875 63.828125 C 1504.339844 63.695313 1517.898438 63.921875 1529.53125 63.921875 C 1537.789063 63.921875 1545.738281 63.601563 1552.769531 63 C 1552.011719 65.453125 1552.011719 68.660156 1552.011719 70.953125 C 1552.011719 72.171875 1551.851563 75.539063 1552.011719 76.304688 C 1552.011719 76.617188 1549.101563 76.757813 1549.101563 76.457031 C 1548.179688 71.40625 1546.351563 68.96875 1531.519531 68.96875 L 1521.570313 68.96875 C 1521.121094 71.5625 1520.960938 75.835938 1520.960938 83.027344 L 1520.960938 97.101563 L 1528.609375 97.101563 C 1541.460938 97.101563 1542.371094 96.796875 1543.589844 91.902344 C 1543.589844 91.585938 1546.5 91.445313 1546.351563 92.214844 C 1545.890625 93.898438 1545.738281 98.625 1545.738281 101.222656 L 1545.738281 107.808594 C 1546.050781 107.960938 1542.828125 108.113281 1542.828125 107.960938 C 1541.761719 101.996094 1540.839844 101.539063 1528.609375 101.539063 L 1520.960938 101.539063 L 1520.960938 116.675781 C 1520.960938 131.359375 1521.730469 132.730469 1526.921875 132.730469 L 1532.890625 132.730469 C 1550.46875 132.730469 1550.941406 130.289063 1552.621094 122.792969 C 1552.621094 122.636719 1555.679688 122.636719 1555.679688 123.097656 C 1555.21875 126.003906 1553.988281 133.496094 1553.21875 135.785156 C 1552.769531 138.09375 1552.011719 138.546875 1550.019531 138.546875 "/>
</g>
<path style=" stroke:none;fill-rule:nonzero;fill:rgb(6.666565%,17.254639%,31.764221%);fill-opacity:1;" d="M 300.769531 201.566406 C 300.769531 213.464844 291.789063 223.5 276.160156 223.5 C 262.636719 223.5 251.085938 214.976563 251.085938 200.976563 L 251.085938 180.460938 C 251.085938 169.378906 249.816406 167.867188 242.234375 166.941406 C 241.878906 166.941406 241.644531 164.597656 242.335938 164.832031 C 245.957031 165.425781 251.550781 165.304688 256.804688 165.304688 C 260.53125 165.304688 266.367188 165.183594 269.164063 164.832031 C 269.875 164.597656 269.875 166.941406 269.289063 166.941406 C 261.355469 167.628906 260.660156 169.964844 260.660156 180.460938 L 260.660156 199 C 260.660156 212.640625 269.515625 218.703125 278.496094 218.703125 C 290.277344 218.703125 296.457031 212.410156 296.457031 200.402344 L 296.457031 179.640625 C 296.457031 169.617188 295.179688 167.867188 287.59375 166.941406 C 287.019531 166.816406 287.019531 164.597656 287.703125 164.832031 C 291.328125 165.425781 294.007813 165.304688 299.136719 165.304688 C 302.761719 165.304688 306.601563 165.183594 309.28125 164.832031 C 310.21875 164.722656 309.753906 166.941406 309.515625 166.941406 C 301.472656 167.628906 300.769531 170.199219 300.769531 179.640625 L 300.769531 201.566406 "/>
<path style=" stroke:none;fill-rule:nonzero;fill:rgb(6.666565%,17.254639%,31.764221%);fill-opacity:1;" d="M 407.316406 206.699219 C 407.316406 211.011719 407.4375 218.945313 407.898438 222.667969 C 407.898438 223.023438 406.496094 223.5 405.804688 222.789063 L 362.300781 178.597656 L 362.300781 206.699219 C 362.300781 216.023438 363.117188 219.292969 371.160156 219.996094 C 371.398438 219.996094 371.628906 222.441406 370.925781 222.207031 C 368.246094 221.855469 365.097656 221.746094 361.484375 221.746094 C 356.351563 221.746094 352.625 221.746094 348.886719 222.207031 C 348.308594 222.328125 348.539063 219.996094 348.886719 219.996094 C 356.585938 219.179688 357.753906 216.617188 357.753906 206.699219 L 357.753906 176.722656 C 357.753906 172.761719 350.414063 167.40625 346.445313 166.933594 C 346.09375 166.933594 345.859375 164.488281 346.558594 164.722656 C 350.179688 165.304688 356.945313 165.417969 361.953125 165.417969 L 402.65625 207.519531 L 402.65625 180.34375 C 402.65625 170.324219 401.484375 167.742188 393.902344 166.933594 C 393.328125 166.816406 393.328125 164.488281 394.019531 164.722656 C 397.523438 165.304688 400.4375 165.304688 405.570313 165.304688 C 409.304688 165.304688 413.265625 165.058594 415.839844 164.722656 C 416.996094 164.597656 416.417969 166.933594 416.183594 166.933594 C 408.023438 167.515625 407.316406 171.011719 407.316406 180.34375 L 407.316406 206.699219 "/>
<path style=" stroke:none;fill-rule:nonzero;fill:rgb(6.666565%,17.254639%,31.764221%);fill-opacity:1;" d="M 474.472656 221.746094 C 469.21875 221.746094 463.625 221.746094 459.894531 222.207031 C 458.949219 222.441406 459.535156 219.996094 459.761719 219.996094 C 467.46875 219.179688 468.632813 217.660156 468.632813 206.699219 L 468.632813 180.34375 C 468.632813 169.265625 467.46875 167.742188 459.761719 166.933594 C 459.535156 166.933594 459.078125 164.597656 460.003906 164.722656 C 463.625 165.304688 469.21875 165.304688 474.472656 165.304688 C 477.964844 165.304688 484.03125 165.058594 486.714844 164.722656 C 487.652344 164.597656 487.179688 166.933594 486.941406 166.933594 C 478.894531 167.515625 478.085938 169.964844 478.085938 180.34375 L 478.085938 206.699219 C 478.085938 217.074219 478.894531 219.292969 486.941406 219.996094 C 487.179688 219.996094 487.652344 222.328125 486.714844 222.207031 C 484.03125 221.855469 477.964844 221.746094 474.472656 221.746094 "/>
<path style=" stroke:none;fill-rule:nonzero;fill:rgb(6.666565%,17.254639%,31.764221%);fill-opacity:1;" d="M 560.574219 222.789063 C 560.449219 223.148438 559.042969 223.382813 558.703125 222.667969 L 540.273438 180.457031 C 536.078125 170.902344 533.394531 167.519531 526.398438 166.933594 C 526.054688 166.933594 525.691406 164.484375 526.398438 164.71875 C 529.199219 165.066406 534.445313 165.304688 538.066406 165.304688 C 543.195313 165.304688 549.609375 165.304688 553.109375 164.71875 C 553.804688 164.484375 553.804688 166.816406 553.226563 166.933594 C 549.382813 167.40625 547.160156 167.628906 547.160156 169.96875 C 547.160156 171.589844 547.628906 174.617188 550.074219 180.222656 L 562.78125 209.035156 L 575.382813 180.222656 C 578.183594 173.695313 578.523438 172.058594 578.523438 169.96875 C 578.523438 167.984375 576.65625 167.289063 572.808594 166.933594 C 572.460938 166.933594 572.113281 164.484375 572.808594 164.71875 C 575.496094 165.066406 579.109375 165.304688 582.84375 165.304688 C 588.089844 165.304688 588.90625 165.304688 592.523438 164.71875 C 593.222656 164.484375 593 166.933594 592.636719 166.933594 C 587.160156 167.519531 584.023438 170.199219 579.457031 180.457031 L 560.574219 222.789063 "/>
<path style=" stroke:none;fill-rule:nonzero;fill:rgb(6.666565%,17.254639%,31.764221%);fill-opacity:1;" d="M 669.878906 222.203125 C 666.609375 222.203125 661.132813 221.742188 654.613281 221.742188 C 645.746094 221.742188 635.128906 221.742188 628.59375 222.203125 C 627.902344 222.203125 628.253906 219.988281 628.59375 219.988281 C 637.460938 218.945313 638.285156 217.777344 638.285156 206.695313 L 638.285156 180.34375 C 638.285156 169.257813 637.460938 167.863281 628.59375 166.941406 C 628.253906 166.941406 627.902344 164.484375 628.59375 164.597656 C 635.128906 165.179688 645.390625 165.304688 654.253906 165.304688 C 660.550781 165.304688 666.609375 165.066406 671.980469 164.597656 C 671.410156 166.476563 671.410156 168.910156 671.410156 170.660156 C 671.410156 171.597656 671.285156 174.164063 671.410156 174.746094 C 671.410156 174.976563 669.191406 175.089844 669.191406 174.863281 C 668.484375 171.011719 667.085938 169.144531 655.773438 169.144531 L 648.191406 169.144531 C 647.839844 171.136719 647.722656 174.398438 647.722656 179.871094 L 647.722656 190.601563 L 653.554688 190.601563 C 663.359375 190.601563 664.046875 190.375 664.980469 186.636719 C 664.980469 186.40625 667.195313 186.292969 667.085938 186.875 C 666.738281 188.15625 666.609375 191.769531 666.609375 193.75 L 666.609375 198.769531 C 666.851563 198.886719 664.410156 199 664.410156 198.886719 C 663.589844 194.328125 662.882813 193.988281 653.554688 193.988281 L 647.722656 193.988281 L 647.722656 205.53125 C 647.722656 216.726563 648.300781 217.777344 652.269531 217.777344 L 656.820313 217.777344 C 670.230469 217.777344 670.578125 215.914063 671.871094 210.203125 C 671.871094 210.082031 674.195313 210.082031 674.195313 210.433594 C 673.839844 212.640625 672.925781 218.363281 672.332031 220.113281 C 671.980469 221.859375 671.410156 222.203125 669.878906 222.203125 "/>
<path style=" stroke:none;fill-rule:nonzero;fill:rgb(6.666565%,17.254639%,31.764221%);fill-opacity:1;" d="M 739.511719 168.210938 C 739.042969 169.851563 738.820313 173.230469 738.820313 179.535156 L 738.820313 193.523438 C 739.859375 193.523438 740.554688 193.632813 742.074219 193.632813 C 753.628906 193.632813 758.175781 189.207031 758.175781 181.277344 C 758.175781 171.476563 752.582031 167.976563 742.425781 167.976563 C 741.140625 167.976563 740.796875 168.101563 739.511719 168.210938 M 742.195313 197.015625 C 740.445313 197.015625 739.859375 197.015625 738.820313 196.902344 L 738.820313 206.699219 C 738.820313 217.195313 739.628906 219.292969 747.558594 219.988281 C 747.90625 219.988281 748.140625 222.4375 747.441406 222.207031 C 744.757813 221.855469 738.820313 221.746094 735.082031 221.746094 C 729.953125 221.746094 724.234375 221.746094 720.503906 222.207031 C 719.796875 222.4375 720.15625 219.988281 720.503906 219.988281 C 728.074219 219.179688 729.484375 217.769531 729.484375 206.699219 L 729.484375 180.34375 C 729.484375 170.199219 727.609375 167.976563 723.53125 167.976563 C 722.601563 167.976563 721.542969 168.101563 720.277344 168.335938 C 719.796875 168.5625 719.214844 166.347656 719.929688 166.222656 C 723.648438 165.058594 734.035156 164.597656 743.582031 164.597656 C 759.34375 164.597656 767.734375 169.617188 767.734375 178.945313 C 767.734375 184.769531 763.53125 190.496094 756.652344 193.402344 C 761.320313 205.308594 772.402344 221.386719 782.542969 221.386719 C 782.894531 221.386719 783.234375 223.609375 782.542969 223.609375 C 763.421875 223.609375 752.582031 210.089844 748.722656 196.324219 C 746.628906 196.664063 743.941406 197.015625 742.195313 197.015625 "/>
<path style=" stroke:none;fill-rule:nonzero;fill:rgb(6.666565%,17.254639%,31.764221%);fill-opacity:1;" d="M 823.535156 218.128906 C 823.039063 217.816406 822.984375 211.269531 822.933594 205.085938 C 822.886719 204.5 825.003906 204.601563 825.023438 204.824219 C 826.28125 213.628906 831.394531 220.308594 840.460938 219.726563 C 846.753906 219.328125 850.816406 215.324219 850.464844 209.738281 C 849.519531 195.195313 823.925781 196.839844 822.886719 180.894531 C 822.378906 172.867188 829.054688 164.128906 839.765625 163.445313 C 844.875 163.125 848.238281 164.433594 851.382813 165.976563 C 852.109375 166.386719 853.351563 171.105469 853.730469 177.039063 C 853.757813 177.390625 851.417969 177.539063 851.394531 177.191406 C 849.945313 170.859375 845.480469 166.710938 839.1875 167.109375 C 833.710938 167.457031 829.820313 170.398438 830.160156 175.75 C 831.058594 189.722656 856.171875 187.746094 857.253906 204.503906 C 857.867188 214.054688 850.953125 222.796875 839.898438 223.511719 C 833.484375 223.914063 828.320313 221.683594 823.535156 218.128906 "/>
<path style=" stroke:none;fill-rule:nonzero;fill:rgb(6.666565%,17.254639%,31.764221%);fill-opacity:1;" d="M 919.519531 221.746094 C 914.269531 221.746094 908.671875 221.746094 904.941406 222.207031 C 904.007813 222.441406 904.597656 219.996094 904.820313 219.996094 C 912.519531 219.179688 913.683594 217.660156 913.683594 206.699219 L 913.683594 180.34375 C 913.683594 169.265625 912.519531 167.742188 904.820313 166.933594 C 904.597656 166.933594 904.125 164.597656 905.0625 164.722656 C 908.671875 165.304688 914.269531 165.304688 919.519531 165.304688 C 923.023438 165.304688 929.089844 165.058594 931.773438 164.722656 C 932.714844 164.597656 932.234375 166.933594 932.003906 166.933594 C 923.957031 167.515625 923.144531 169.964844 923.144531 180.34375 L 923.144531 206.699219 C 923.144531 217.074219 923.957031 219.292969 932.003906 219.996094 C 932.234375 219.996094 932.714844 222.328125 931.773438 222.207031 C 929.089844 221.855469 923.023438 221.746094 919.519531 221.746094 "/>
<path style=" stroke:none;fill-rule:nonzero;fill:rgb(6.666565%,17.254639%,31.764221%);fill-opacity:1;" d="M 1031.011719 176.261719 C 1031.011719 176.609375 1028.890625 176.5 1028.890625 176.261719 C 1028.078125 172.421875 1025.050781 169.730469 1015.730469 169.730469 L 1010.109375 169.730469 L 1010.109375 206.699219 C 1010.109375 217.070313 1010.820313 219.292969 1018.96875 219.988281 C 1019.320313 219.988281 1019.558594 222.328125 1018.628906 222.203125 C 1015.929688 221.859375 1009.988281 221.746094 1006.261719 221.746094 C 1001.25 221.746094 995.527344 221.746094 991.910156 222.203125 C 990.980469 222.441406 991.445313 219.988281 991.800781 219.988281 C 999.496094 219.175781 1000.660156 217.660156 1000.660156 206.699219 L 1000.660156 169.730469 L 994.574219 169.730469 C 985.601563 169.730469 982.097656 172.296875 980.945313 176.375 C 980.464844 176.5 978.710938 176.5 978.828125 176.136719 C 979.1875 174.273438 979.269531 169.714844 979.269531 167.261719 C 979.269531 166.898438 979.050781 166.304688 978.945313 165.773438 C 978.875 165.40625 980.8125 165.375 981.039063 165.652344 C 981.921875 166.660156 981.984375 165.652344 994.574219 165.652344 L 1015.730469 165.652344 C 1028.210938 165.652344 1028.789063 166.710938 1029.5 165.652344 C 1029.699219 165.34375 1031.820313 165.417969 1031.589844 165.890625 C 1031.128906 167.75 1030.878906 167.863281 1030.878906 170.777344 C 1030.878906 172.183594 1030.878906 175.089844 1031.011719 176.261719 "/>
<path style=" stroke:none;fill-rule:nonzero;fill:rgb(6.666565%,17.254639%,31.764221%);fill-opacity:1;" d="M 1133.140625 167.40625 C 1118.910156 167.40625 1108.53125 184.890625 1108.53125 204.488281 L 1108.53125 206.699219 C 1108.53125 217.195313 1109.238281 219.292969 1117.28125 219.988281 C 1117.640625 219.988281 1117.859375 222.4375 1117.171875 222.207031 C 1114.371094 221.855469 1108.429688 221.746094 1104.808594 221.746094 C 1099.671875 221.746094 1093.960938 221.746094 1090.21875 222.207031 C 1089.289063 222.4375 1089.878906 219.988281 1090.109375 219.988281 C 1097.808594 219.179688 1099.089844 217.660156 1099.089844 206.699219 L 1099.089844 204.488281 C 1099.089844 183.152344 1087.429688 167.515625 1073.78125 167.515625 C 1072.621094 167.515625 1071.558594 167.628906 1070.519531 167.863281 C 1070.28125 167.863281 1069.699219 165.871094 1070.398438 165.765625 C 1073.320313 164.722656 1076.46875 164.011719 1079.261719 164.011719 C 1092.210938 164.011719 1102.941406 174.042969 1106.441406 187.097656 C 1111.691406 172.535156 1121.019531 164.597656 1131.511719 164.597656 C 1133.378906 164.597656 1137.421875 165.058594 1139.28125 165.765625 C 1139.980469 165.871094 1139.28125 168.101563 1138.820313 167.863281 C 1137.421875 167.515625 1134.660156 167.40625 1133.140625 167.40625 "/>
<path style=" stroke:none;fill-rule:nonzero;fill:rgb(6.666565%,17.254639%,31.764221%);fill-opacity:1;" d="M 1286.101563 248.085938 L 1285.691406 247.609375 C 1285.378906 247.085938 1285.570313 246.273438 1285.789063 245.890625 L 1285.980469 245.546875 L 1286.949219 245.390625 C 1292.730469 244.769531 1292.730469 244.769531 1292.730469 235.492188 L 1292.730469 215.296875 C 1292.730469 205.945313 1292.730469 205.945313 1286.941406 205.261719 L 1286.398438 205.199219 L 1286.390625 205.199219 C 1285.730469 205.199219 1285.5 204.222656 1285.5 203.742188 C 1285.5 203.488281 1285.558594 203.246094 1285.679688 203.070313 C 1285.851563 202.785156 1286.160156 202.640625 1286.5 202.640625 C 1291.050781 202.945313 1297.390625 203.105469 1304.921875 203.105469 C 1310.289063 203.105469 1314.691406 202.957031 1318.398438 202.640625 L 1319.398438 202.550781 L 1319.101563 203.519531 C 1318.738281 204.683594 1318.648438 205.785156 1318.648438 207.21875 C 1318.648438 207.867188 1318.648438 209.175781 1318.710938 209.695313 L 1318.761719 209.984375 L 1318.550781 210.304688 C 1318.359375 210.542969 1318.039063 210.65625 1317.609375 210.65625 C 1317.25 210.65625 1316.398438 210.59375 1316.191406 210 C 1315.761719 207.628906 1315.191406 206.617188 1306.070313 206.617188 L 1300.191406 206.617188 C 1299.980469 208.539063 1299.941406 211.742188 1299.941406 214.957031 L 1299.941406 222.898438 L 1306.199219 222.898438 C 1312.460938 222.898438 1312.519531 222.554688 1312.730469 221.554688 L 1312.820313 221.128906 C 1312.890625 220.859375 1313.121094 220.523438 1313.769531 220.523438 C 1313.769531 220.523438 1314.871094 220.546875 1315.238281 220.960938 L 1315.488281 221.234375 L 1315.398438 221.59375 C 1315.171875 222.480469 1315.019531 224.003906 1315.019531 225.597656 C 1315.019531 226.3125 1315.019531 227.609375 1315.078125 228.136719 L 1315.121094 228.382813 L 1314.96875 228.703125 C 1314.78125 228.996094 1314.429688 229.136719 1313.878906 229.136719 C 1313.371094 229.136719 1312.738281 229.023438 1312.550781 228.5 C 1312.21875 226.753906 1312.078125 226.066406 1306.199219 226.066406 L 1299.941406 226.066406 L 1299.941406 235.222656 C 1299.941406 244.097656 1301.121094 244.097656 1303.441406 244.097656 L 1307.011719 244.097656 C 1317.171875 244.097656 1317.359375 243.285156 1318.261719 239.316406 C 1318.25 239.175781 1318.390625 238.699219 1319.339844 238.699219 C 1319.960938 238.699219 1320.390625 238.84375 1320.621094 239.132813 L 1320.828125 239.375 L 1320.800781 239.792969 C 1320.539063 241.425781 1319.929688 244.621094 1319.5 246.109375 C 1319.058594 247.726563 1318.308594 248.015625 1316.96875 248.015625 C 1315.941406 248.015625 1314.578125 247.957031 1312.988281 247.890625 C 1310.769531 247.789063 1308.101563 247.679688 1305.191406 247.679688 C 1299.269531 247.679688 1291.800781 247.726563 1286.589844 248.085938 L 1286.101563 248.085938 "/>
<g clip-path="url(#clip2)" clip-rule="nonzero">
<path style=" stroke:none;fill-rule:nonzero;fill:rgb(6.666565%,17.254639%,31.764221%);fill-opacity:1;" d="M 1339.898438 249.023438 C 1335.078125 249.023438 1331.050781 247.539063 1327.210938 244.363281 C 1326.75 243.988281 1326.761719 243.371094 1327.070313 239.242188 C 1327.171875 237.960938 1327.300781 236.480469 1327.359375 234.914063 C 1327.359375 234.808594 1327.429688 234.039063 1328.660156 234.039063 C 1329.839844 234.039063 1329.929688 234.6875 1329.929688 234.886719 C 1330.421875 241.761719 1334.171875 245.582031 1340.5 245.582031 C 1344.320313 245.582031 1348.78125 243.695313 1348.78125 238.394531 C 1348.78125 233.324219 1344.199219 230.660156 1339.339844 227.832031 C 1334.019531 224.734375 1328.53125 221.542969 1328.53125 214.890625 C 1328.53125 208.550781 1334.121094 201.765625 1342.460938 201.765625 C 1346.890625 201.765625 1349.558594 202.886719 1351.601563 204.003906 C 1352.5 204.449219 1352.960938 207.117188 1352.960938 211.933594 C 1352.960938 212.148438 1352.871094 212.847656 1351.609375 212.847656 L 1350.460938 212.660156 L 1350.261719 211.996094 C 1349.539063 207.550781 1346.640625 205.144531 1341.921875 205.144531 C 1338.328125 205.144531 1334.519531 207.304688 1334.519531 211.320313 C 1334.519531 216.050781 1338.851563 218.554688 1343.429688 221.21875 C 1348.570313 224.191406 1354.378906 227.570313 1354.378906 234.675781 C 1354.378906 242.722656 1348.019531 249.023438 1339.898438 249.023438 "/>
</g>
<path style=" stroke:none;fill-rule:nonzero;fill:rgb(6.666565%,17.254639%,31.764221%);fill-opacity:1;" d="M 1367.359375 248.097656 C 1366.949219 248.097656 1366.511719 247.792969 1366.441406 247.132813 C 1366.378906 246.539063 1366.609375 245.601563 1367.300781 245.457031 C 1372.960938 244.886719 1372.960938 244.886719 1372.960938 235.492188 L 1372.960938 207.089844 L 1371.648438 207.089844 C 1364 207.089844 1363.730469 208.171875 1363.078125 210.757813 L 1362.859375 211.554688 L 1362.480469 211.648438 C 1362.25 211.703125 1361.949219 211.703125 1361.839844 211.703125 C 1361.191406 211.703125 1360.828125 211.589844 1360.628906 211.300781 L 1360.429688 211.019531 L 1360.53125 210.640625 C 1360.710938 209.660156 1360.820313 207.765625 1360.820313 205.269531 C 1360.820313 204.296875 1360.730469 203.863281 1360.570313 203.140625 L 1360.449219 202.527344 L 1360.601563 202.207031 C 1360.851563 201.804688 1361.410156 201.722656 1361.839844 201.722656 C 1362.339844 201.722656 1362.679688 201.828125 1362.890625 202.0625 C 1364.140625 203.453125 1364.648438 203.480469 1369.03125 203.417969 L 1381.199219 203.378906 C 1382.570313 203.390625 1383.71875 203.417969 1384.699219 203.441406 C 1388.851563 203.539063 1389.648438 203.453125 1390.460938 202.167969 C 1390.550781 202.027344 1390.738281 201.742188 1391.640625 201.742188 C 1392.179688 201.742188 1392.53125 201.882813 1392.730469 202.167969 L 1392.941406 202.457031 L 1392.808594 202.894531 C 1392.5 204.363281 1392.320313 205.171875 1392.320313 207.351563 C 1392.320313 208.332031 1392.320313 209.988281 1392.441406 210.742188 L 1392.488281 211.019531 L 1392.308594 211.289063 C 1392.179688 211.492188 1391.910156 211.691406 1391.101563 211.691406 C 1390.789063 211.691406 1389.890625 211.691406 1389.890625 210.917969 L 1389.828125 210.703125 C 1389.328125 208.222656 1389.101563 207.089844 1381.199219 207.089844 L 1380.238281 207.089844 L 1380.238281 235.492188 C 1380.238281 245.019531 1380.238281 245.019531 1385.859375 245.453125 L 1385.878906 245.453125 C 1386.46875 245.453125 1386.800781 246.148438 1386.800781 246.828125 C 1386.800781 247.570313 1386.371094 248.085938 1385.738281 248.085938 C 1383.71875 247.832031 1380.488281 247.675781 1377.398438 247.675781 C 1373.421875 247.675781 1370.378906 247.746094 1367.511719 248.078125 L 1367.359375 248.097656 "/>
<path style=" stroke:none;fill-rule:nonzero;fill:rgb(6.666565%,17.254639%,31.764221%);fill-opacity:1;" d="M 1390.710938 243.738281 C 1390.710938 241.734375 1392.261719 239.816406 1394.628906 239.816406 C 1396.820313 239.816406 1398.46875 241.636719 1398.46875 243.554688 C 1398.46875 245.582031 1396.730469 247.496094 1394.449219 247.496094 C 1392.261719 247.496094 1390.710938 245.664063 1390.710938 243.738281 "/>
<path style=" stroke:none;fill-rule:nonzero;fill:rgb(6.666565%,17.254639%,31.764221%);fill-opacity:1;" d="M 1445.808594 248.476563 L 1445.71875 248.457031 C 1443.71875 248.191406 1440.679688 248.191406 1437.988281 248.191406 C 1435.179688 248.191406 1432.011719 248.191406 1429.980469 248.46875 C 1429.589844 248.507813 1429.230469 248.316406 1429.070313 247.871094 C 1429.019531 247.707031 1429 247.515625 1429 247.304688 C 1429 246.382813 1429.328125 245.835938 1429.890625 245.835938 C 1434.421875 245.289063 1434.511719 245.285156 1434.511719 240.433594 L 1434.511719 228.339844 C 1434.511719 224.707031 1433.921875 224.433594 1433.101563 224.433594 C 1432.589844 224.433594 1431.898438 224.589844 1430.960938 224.902344 C 1430.210938 224.9375 1429.808594 224.453125 1429.671875 224.03125 C 1429.480469 223.476563 1429.589844 222.949219 1429.96875 222.652344 L 1430.761719 222.207031 C 1433.578125 220.617188 1437.46875 218.457031 1439.589844 216.472656 L 1439.789063 216.285156 L 1440.121094 216.257813 C 1440.550781 216.257813 1441.199219 216.582031 1441.5 216.933594 L 1441.699219 217.1875 L 1441.71875 217.730469 C 1441.390625 219.050781 1441.308594 225.058594 1441.308594 228.046875 L 1441.308594 240.433594 C 1441.308594 245.289063 1441.308594 245.289063 1445.929688 245.835938 L 1445.941406 245.835938 C 1446.410156 245.835938 1446.738281 246.390625 1446.738281 247.292969 C 1446.738281 248.417969 1446.019531 248.476563 1445.878906 248.476563 L 1445.808594 248.476563 "/>
<g clip-path="url(#clip3)" clip-rule="nonzero">
<path style=" stroke:none;fill-rule:nonzero;fill:rgb(6.666565%,17.254639%,31.764221%);fill-opacity:1;" d="M 1466.671875 202.617188 C 1462.601563 202.617188 1459.980469 205.261719 1459.980469 209.375 C 1459.980469 213.953125 1463.71875 216.664063 1468.660156 219.675781 C 1472.109375 217.394531 1473.941406 214.261719 1473.941406 210.589844 C 1473.941406 205.96875 1470.878906 202.617188 1466.671875 202.617188 M 1464.859375 226.179688 C 1459.941406 228.699219 1457.828125 231.875 1457.828125 236.785156 C 1457.828125 242.625 1462.128906 245.695313 1466.378906 245.695313 C 1471.578125 245.695313 1475.089844 242.539063 1475.089844 237.855469 C 1475.089844 232.300781 1470.238281 229.394531 1465.101563 226.324219 Z M 1465.519531 249.265625 C 1457.371094 249.265625 1450.960938 243.78125 1450.960938 236.785156 C 1450.960938 231.597656 1454.671875 226.96875 1461.171875 223.925781 C 1457.28125 221.332031 1453.46875 218.007813 1453.46875 212.523438 C 1453.46875 204.875 1459.699219 199.105469 1467.960938 199.105469 C 1474.808594 199.105469 1480.371094 204.101563 1480.371094 210.242188 C 1480.371094 214.980469 1477.898438 218.484375 1472.148438 221.792969 C 1476.78125 224.75 1481.371094 228.496094 1481.371094 234.773438 C 1481.371094 243.035156 1474.558594 249.265625 1465.519531 249.265625 "/>
</g>
<path style=" stroke:none;fill-rule:nonzero;fill:rgb(6.666565%,17.254639%,31.764221%);fill-opacity:1;" d="M 1512.96875 248.476563 C 1512.011719 248.476563 1510.601563 248.429688 1508.96875 248.367188 C 1506.679688 248.289063 1503.921875 248.191406 1501.289063 248.191406 C 1495.25 248.191406 1490.878906 248.191406 1486.390625 248.476563 C 1485.570313 248.476563 1485.199219 247.429688 1485.089844 246.992188 C 1484.820313 246.023438 1485.128906 245.609375 1485.429688 245.425781 C 1498.488281 238.589844 1504.058594 232.710938 1504.058594 225.761719 C 1504.058594 221 1501.429688 217.921875 1497.371094 217.921875 C 1494.390625 217.921875 1492.109375 219.023438 1489.480469 221.722656 L 1489.28125 221.925781 L 1488.839844 221.988281 C 1488.238281 221.988281 1487.730469 221.394531 1487.539063 221 C 1487.339844 220.5625 1487.359375 220.144531 1487.609375 219.835938 C 1491.210938 214.917969 1495.289063 212.421875 1499.730469 212.421875 C 1506.328125 212.421875 1511.128906 217.0625 1511.128906 223.464844 C 1511.128906 229.949219 1504.71875 236.984375 1497.78125 241.605469 L 1505.519531 241.605469 C 1512.28125 241.605469 1512.769531 241.078125 1513.140625 237.355469 C 1513.140625 236.878906 1513.621094 236.609375 1514.519531 236.609375 C 1515.558594 236.609375 1515.710938 237.121094 1515.710938 237.417969 C 1515.941406 239.195313 1515.339844 245.660156 1515.050781 246.757813 C 1514.851563 247.503906 1514.410156 248.476563 1512.96875 248.476563 "/>
<g clip-path="url(#clip4)" clip-rule="nonzero">
<path style=" stroke:none;fill-rule:nonzero;fill:rgb(6.666565%,17.254639%,31.764221%);fill-opacity:1;" d="M 1537.871094 249.265625 C 1526.769531 249.265625 1521.71875 240.527344 1521.71875 232.410156 C 1521.71875 220.578125 1531.75 205.695313 1554.128906 199.132813 L 1554.410156 199.09375 C 1555.089844 199.09375 1555.488281 199.757813 1555.601563 200.355469 C 1555.691406 200.976563 1555.449219 201.484375 1554.960938 201.648438 C 1531.941406 210.222656 1529.449219 225.976563 1529.449219 232.34375 C 1529.449219 240.285156 1533.46875 246.050781 1539.011719 246.050781 C 1543.378906 246.050781 1546.199219 242.269531 1546.199219 236.425781 C 1546.199219 230.699219 1543.371094 227.148438 1538.800781 227.148438 C 1537.640625 227.148438 1536.03125 227.761719 1535.371094 228.1875 L 1534.949219 228.316406 C 1534.269531 228.316406 1533.488281 227.285156 1533.390625 226.890625 L 1533.28125 226.371094 L 1533.769531 226.082031 C 1535.730469 224.003906 1539.078125 222.511719 1541.941406 222.511719 C 1549.578125 222.511719 1553.710938 228.832031 1553.710938 234.769531 C 1553.710938 242.625 1546.441406 249.265625 1537.871094 249.265625 "/>
</g>
<path style=" stroke:none;fill-rule:nonzero;fill:rgb(6.666565%,17.254639%,31.764221%);fill-opacity:1;" d="M 1263.109375 248.28125 L 242.992188 248.28125 L 242.992188 243.5625 L 1263.109375 243.5625 L 1263.109375 248.28125 "/>
<path style=" stroke:none;fill-rule:nonzero;fill:rgb(6.666565%,17.254639%,31.764221%);fill-opacity:1;" d="M 204.597656 248.160156 L 0 248.160156 L 0 0.00390625 L 204.597656 0.00390625 L 204.597656 248.160156 "/>
<path style=" stroke:none;fill-rule:nonzero;fill:rgb(100%,100%,100%);fill-opacity:1;" d="M 29.292969 219.714844 L 28.164063 150.535156 C 68.523438 165.398438 89.164063 196.152344 99.492188 220.332031 Z M 183.453125 100.570313 C 181.921875 100.511719 181.914063 102.4375 181.914063 102.4375 L 178.726563 221.011719 L 105.378906 220.375 C 103.011719 212.855469 98.257813 202.015625 95.9375 196.851563 L 159.328125 213.039063 L 159.328125 213.027344 C 159.4375 213.042969 159.546875 213.066406 159.660156 213.066406 C 160.472656 213.066406 161.128906 212.386719 161.128906 211.542969 C 161.128906 210.890625 160.742188 210.347656 160.171875 210.136719 L 160.183594 210.105469 C 159.628906 209.898438 115.433594 193.949219 97.71875 187.554688 L 165.019531 184.382813 L 165.019531 184.355469 C 165.792969 184.308594 166.410156 183.648438 166.410156 182.847656 C 166.410156 182.035156 165.792969 181.382813 165.019531 181.339844 L 165.019531 181.3125 L 95.121094 178.25 L 164.386719 152.15625 L 164.386719 152.140625 C 164.914063 151.910156 165.285156 151.371094 165.285156 150.746094 C 165.285156 149.90625 164.628906 149.222656 163.8125 149.222656 C 163.699219 149.222656 163.578125 149.238281 163.480469 149.265625 L 163.46875 149.234375 L 90.433594 169.863281 L 165.285156 107.28125 C 165.640625 107.003906 165.863281 106.582031 165.863281 106.101563 C 165.863281 105.257813 165.195313 104.574219 164.386719 104.574219 C 163.980469 104.574219 163.746094 104.757813 163.351563 105.015625 L 85.6875 161.539063 L 157.617188 54.78125 C 157.777344 54.53125 157.871094 54.234375 157.871094 53.917969 C 157.871094 53.074219 157.222656 52.398438 156.398438 52.398438 C 155.855469 52.398438 155.539063 52.613281 155.136719 53.160156 L 77.753906 155.492188 L 105.832031 59.230469 C 105.882813 59.082031 105.914063 58.929688 105.914063 58.777344 C 105.914063 57.929688 105.253906 57.25 104.445313 57.25 C 103.777344 57.25 103.234375 57.695313 103.046875 58.316406 L 69.042969 151.175781 C 69.042969 151.175781 68.121094 66.050781 68.121094 66.039063 C 68.121094 65.199219 67.457031 64.515625 66.648438 64.515625 C 65.832031 64.515625 65.171875 65.199219 65.171875 66.039063 L 65.171875 66.078125 C 64.972656 68.980469 60.832031 129.542969 59.441406 149.710938 L 39.207031 88.875 C 38.929688 87.890625 38.359375 87.09375 37.222656 87.351563 C 35.78125 87.695313 36.28125 89.5625 36.28125 89.5625 L 50.191406 151.703125 C 43.257813 148.332031 35.839844 145.65625 28.035156 143.742188 L 26.113281 26.6875 L 109.84375 22.765625 C 109.84375 22.765625 111.835938 22.855469 111.835938 21.265625 C 111.835938 19.566406 109.789063 19.699219 109.789063 19.699219 L 19.871094 19.699219 L 20.539063 228.074219 L 184.898438 227.398438 L 184.898438 102.484375 C 184.898438 102.484375 184.949219 100.621094 183.453125 100.570313 "/>
</g>
</svg>
