<?xml version="1.0" encoding="utf-8"?>
<!-- Generator: Adobe Illustrator 26.0.3, SVG Export Plug-In . SVG Version: 6.00 Build 0)  -->
<svg version="1.0" id="Layer_1" xmlns="http://www.w3.org/2000/svg" xmlns:xlink="http://www.w3.org/1999/xlink" x="0px" y="0px"
	 viewBox="0 0 1191.9 865.6" style="enable-background:new 0 0 1191.9 865.6;" xml:space="preserve">
<style type="text/css">
	.st0{fill:#26394C;}
	.st1{fill:#64615B;}
	.st2{font-family:'ArialMT';}
	.st3{font-size:13.9214px;}
</style>
<path class="st0" d="M599.2,712.4c-51-77.4-83.6-165.6-105.5-255.2c-0.3-1.1-1,2.2-1.5,3.3c0.5,5.7,1.3,11.4,2.5,17.1
	c4.8,21.5,9.4,42.9,15.3,64.1c8.4,29.6,21.2,63.3,35.2,90.7c-9.4,3.2-18.4,6.7-28.2,8.5c-40.3,7.5-81.3,8.8-121.7,15.6
	c-12.2,2-29.6,6.5-40.6,11.8c-1.9,0.9-0.8-1.1,0.6-2.7c25.2-29.9,34.1-63.8,30.3-102.5c-1.5-15.6-4.4-31.2-5.7-47
	c-1.6-19.7-3-49.5,1.6-68.3c2.3-9.5,5.4-18.8,9.1-27.8c19-47.1,59.8-83.1,107.2-99.4c28.7-9.8,59.9-11.4,89.7-6.1
	c43.2,7.6,79.8,34.6,107.9,67.1c6.9,7.9,12.5,17.2,17.8,26.2c-32.1,7.8-65.2,11.5-98,15.2c-33.3,3.7-65.7,4.6-99.2,4.8v2.6
	c0.7,1.2,2.8,0.1,4.1,0.2c51,3,102.2,2.5,152.7-5.6c18.7-3.2,37.1-7.5,55.2-13.1c-0.9,35.4-3,70.7-3,106.1l-23.1-7.5
	c-0.8,1.1-1.5,2.3-2.3,3.5c0.2,0.7,0.3,1.4,0.4,2.1c11.3,42.7,25.9,84.3,45.4,124c-22-8.7-44.2-17.2-66.4-24.8
	c-1.1-0.5-2.1-1.2-2.9-2.1c-0.6-37.6-3.3-78.7-9.4-115.7c17.9,3.9,28.7,3.9,46.7,2.2c1.6-0.1-2.9-1.6-4.5-1.9
	c-25.4-3.7-50.4-11.6-74.8-19.3c-48.9-15.4-97.4-32.8-145.2-51.3c2.4,1.5,0.6-0.2,0,0.1c-0.8,0.4-1.5,0.8-2.3,1.2
	c40.1,18.6,85.2,41.9,127.2,54.9c10.5,20.1,26.4,35.1,45.3,47.5c-3.2,17-4.1,40.3-4.5,57.8c-1.5,65-1.3,130.2-0.3,195.2
	C634.7,761.1,615.8,737.6,599.2,712.4z"/>
<path class="st0" d="M291.6,535.2c-4.6-15.6-8.3-31.5-11.3-47.5c5.3-1.1,10.5-2.4,15.7-3.7c2.5-0.6-0.7-1.1-3.2-1.1l-13.5,0.7
	c-4-29.1-4.7-58.6-2.3-87.9c8.1,1,16.4,2.2,24.4,3.7c2.6,0.5,6-0.1,3.5-0.9c-9.1-2.7-18-5.2-27.2-7.8c2.9-19.9,5.5-40,12.2-59
	c8,3.5,16.2,6.9,24.3,9.8l2-2l-25.4-12.7c7.3-23.4,17-45.2,28.6-66.8l9,5.6l1.5-2.3c0.3,1.1-2-1-2.9-1.6c-2.2-1.3-4.2-2.9-6-4.7
	c9.1-16.8,19.5-32.8,31.1-48l24.1,23.8c0.7,0.7-0.2-1.9-0.4-2.9L355,205.1c15-17.7,31.7-34.6,50.3-48.4l19.8,29.1
	c0.6,0.9,0.5-2,0.7-3c-5.5-9.6-11-19.4-16.2-29.3c17.8-13.2,36.7-24.8,56.4-34.7c1,1.3,1.9,2.7,2.6,4.2
	c5.7,15.4,11.9,30.6,18.5,45.6c0.9,2.1,1.5-0.7,0.9-2.9c-4.4-15.5-8.3-31.2-12.3-46.9c-0.3-1.3-0.6-2.7-0.7-4
	c14.3-6.4,28.9-12,43.7-16.8c4,10,7.6,20.1,11.1,30.3c0.8,2.4,1-0.7,1-3.1c0.1-0.7,0.1-1.4,0-2.1c-2-7.8-4.1-15.6-6.3-23.5l1.4-4.5
	l5.8,14.1c0.4,0.8,1.7-0.7,2.5-1c-1.2-4.4-1.8-9-1.7-13.6c4.7-1.7,9.5-3.2,14.4-4.5c14.5-3.6,29.3-5.8,44.2-6.6
	c0.6,11,1.1,22.1,1.5,33.2l1.8,4.4l2.8-38.2c14.2-1.1,28.5-1.3,42.8-0.8c-0.7,5-1.4,10.3-2.2,15.4c-0.3,2.1-0.2,4.5,0.9,2.7
	c3.1-5.6,4.4-11.3,5.9-17.5c16.3,1.8,31,2.4,47.3,5.6l-11.7,58.5c1.2-1.2,3.6-4.3,4.3-6.6c5-16.8,11.4-33.4,16.2-50.4
	c3.7,0.9,6.7,1.8,10.6,2.7c27.5,6.2,53.9,18.2,78.7,31.4c-4.3,7.6-8.5,15-12.7,22.7c-0.8,1.4,1.2,1,2.1-0.3l14.5-20.3
	c11.5,6.6,22.5,13.9,33.1,21.9l-36.2,43.8c-0.8,1,2.5-0.5,3.7-0.7c12.1-11.4,24.3-22.8,36.3-34.4c1.2-1.1,2.4-2.1,3.7-3.1
	c19.7,15.7,38.2,33,55.1,51.7c-5.5,4.7-11.7,9.6-17.5,14c-2.1,1.6,1.3,2.2,3.6,0.7l18.3-9.5l3.3,4.4c-0.7,0.9-1.4,1.6-2.3,2.3
	c-16.5,10.8-35,21.9-52.2,31.6l1.1,2c0.6,0.3,1.3-0.6,1.9-0.9c17.8-8.4,35.5-16.8,53.4-25c1.3-0.6,2.6-1,3.9-1.3l13.2,18.1
	c-50.1,19.4-99.6,40-149.5,59.6c-1.6,0.6-3.2,0.9-4.8,1.1l-7.3-6.6l17.1-16.6c0.7-0.6-1.9-0.5-2.8-0.8c-6,4.4-12.5,8.3-19.2,11.7
	l-4.9-3.2l10.7-12c1,0.6-2.6-0.6-3.7-0.1c-7.5,3-12.7,11.4-19.8,3.4c27.9-24.5,55.6-49.2,83.9-73.2c2.5-2.2,4.8-4.5,6.9-7
	c1.3-1.5-1.1-1.1-2.6,0.2l-97,74.3l-11.5-5.9l26.4-38.1l-1.7-1.2c1,0.5-1.3,1.8-2,2.6c-8.8,11.7-17.6,23.4-26.4,35.2l-18.9-8.6
	c12-23.1,23.6-46.5,35.6-69.1c0.7-1.4,1.3-2.8,2-4.3l-0.7-3.2l-45.6,76.1c-1,1.7-2.4-3-3.7-4.5c4.1-9.2,8-18.5,11.8-27.8
	c0.9-2.1,0.2-4.8-0.9-2.8l-15.6,30.2c-2.5-1-7.4-2.8-10-3.6c-1.3-0.6-2.6-1.3-3.7-2.1c14.5-37,28.9-74.2,42.5-111.5
	c0.9-2.6,1.6-4.2,2.2-6.4l-0.5-3.4c-1,1.9-2.1,3.7-2.9,5.6c-15,34.8-30.3,69.6-45.1,104.6c-1.6,3.6-3.4,7.2-5.4,10.6l-14.1-2.6
	c1.7-12.1,3.2-23.7,4.6-35.8c0.2-2.1-0.5-4.5-1.1-2.5l-10.5,37.9l-15.4-2.5c1.7-19.3,1.8-38,3.9-57.4c-0.7,0.9-3.5,5.3-3.9,7.4
	c-2.9,16.8-5.5,33.5-8.6,50.3l-12.1-0.6c0.5-16.6,0.6-33.2,0.4-49.7l-1-4.1l-5.3,52.7l-8.1,0.8c-0.5-2.2-0.9-4.4-1-6.7
	c0-39.1-0.2-79.2-1.9-118.1h-1.2l-2.7,124.6l-8,2.5c-1.4-6.3-2.8-13.9-3.7-20.3c-0.2-1.9-1.5-0.4-2.1,1.4c-0.4,1.1-0.7,2.2-0.7,3.4
	c0,5.3-0.3,10.7-0.4,16l-6,0.4c-4.5-13.6-8.5-27.4-12.1-41.3c-0.7-2.8-1.9,0.7-1.5,3.5l5.2,39c-4.5,1.9-9.2,3-14.1,3.4
	c-9.1-27.1-19.8-54.8-30.1-81.4c-0.8-2-1.1,0.5-1,2.6c-0.1,0.7,0,1.4,0.1,2.1c9,26.2,15.2,53.5,23.9,79.9l-11.3,2.7
	c-6-14.4-12-28.5-18.1-42.8c-0.9-2.2-1.4,0.5-1.3,2.9c0,0.1,0.7,4.2,0.7,4.3c3.9,11.8,7.5,24.1,10.2,36.3c0.7,3.4-2.2,3.9-5.4,4.7
	c-1.3-1.4-2.4-3-3.3-4.7c-15.1-30.4-30.9-60.6-45.8-90.4c-1-2-1.5,0.7-1,2.9c0.1,0.7,0.3,1.4,0.5,2.1c14.3,30.9,26.9,63.1,40.6,94.4
	l-6.6,3.1c-6.1-10.8-12.2-21.5-18.6-32.2c-1.2-2-1.6,0.7-1,3c0.1,0.7,0.3,1.4,0.6,2.1c4.7,10.3,8.3,21.2,11.9,32.1l-7.5,1.2
	c-13.5-21.3-28-42.1-42.4-62.8c-1.8-2.5-2.4,1.3-0.9,3.9l37.1,63.4c0.5,0.7-1.4,1-2,1.5c-1.8,1-3.7,2-5.6,2.8l-11.2-12.9
	c-0.7-0.7-0.7,1.8-1,2.8l4.9,8.2c0.4,0.8-0.6,1.6-0.9,2.4c-8.7-8.5-17.7-16.9-26.7-25c-2.1-1.9-2,1.5-0.3,3.7l23.1,30.7l-9.5,8.4
	c-19.5-17.9-39.1-35.7-58.1-54c-1.5-1.4-3.3,0.5-1.9,2l52.3,57.2l-4.5,4.7c-13.3-10.8-30.3-23.2-41.6-35.4c-0.9,0.4-1.8,0.9-2.7,1.3
	l38.1,40.3l-7.1,7.8c-13.5-8.6-26.6-18-39.1-28c-2.2-1.8-5.6-0.5-3.5,1.3l37.6,32.5l-4.4,3c-7.6-4.2-17-10-23.3-15.4
	c-2.2-1.9-5.9-0.7-3.7,1.3l16.9,13.5l-1.3,1.8c0.1,0.2-0.5-0.3-0.7-0.4c-10.4-6-20.6-12.2-30.4-18.4c-2.1-1.3-5.1-0.1-3.1,1.3
	l38,26.5l-4.1,6.3c-17.9-7.3-36.4-13.4-54-21.2c-0.8,0.8-1.5,1.6-2.3,2.4c17.6,9.2,35.3,17.8,52.6,27.5l-6.1,3.1l-22.7-9.4
	c-1.3-0.6-2.8,0.8-4.2,1.2l24.5,14.2l-1.7,3.3c-6-2.5-28-9.4-31.4-13.4l-1.6,2.9c0.3,1.2,2.2,1,3.3,1.5c9.2,4.3,18.4,8.7,27.4,13.3
	l-4.3,9.3c-13.9-2.5-28.7-5.5-42.3-9c-2.5-0.6-5.7,0.4-3.3,1.3c14.1,5.3,28.7,10.4,43.2,15.3l-4,5.9l-31.7-5.6
	c-2.5-0.5-5.4,0.6-3,1.5l32.7,11.2l-5.4,13.6c-14.5-1.2-29-2-43.5-2.5c-2.6,0-5.8,0.7-3.2,1.1c14.7,2.6,29,5.7,43.8,7.8l-1.1,10.3
	c-14.7,0.3-29.5,0.6-44.2,0.9l-1,2.5l42.4,5.7c-0.4,2.3-1.2,5.2-3,6.9c-11.8,0.3-23.5,1.7-35.1,4c-1.2,0.2,2.3,0.7,3.6,0.8
	c10.7,0.6,21.4,0.6,32.1,0.5l-0.8,3.9c-5.6,1-11.1,2-16.7,3c2.7,0.4-0.1-0.5,0.1,0.4c0.1,0.9,0.2,1.7,0.3,2.5
	c5.4-1.1,10.8-1.7,16.3-1.9l-2.3,32.4c-17.8,10.5-34.2,24.2-44.2,42.6C292.2,537.1,291.9,536.1,291.6,535.2z"/>
<path class="st1" d="M345.1,488.2c1.5-21.8,4.5-43.1,10.7-64.1c14-47.3,43.1-92.5,82.2-122.8c17.1-13.4,35.7-24.6,55.5-33.5
	c19.5-8.8,40.8-14.5,62-17.6c49.7-7.3,102.6,0.7,147.3,23.4c20.7,10.6,39.9,23.9,57.2,39.5c-11,1.1-25.2,3.2-35.2,8
	c-33.6-26.8-73.5-44.5-115.9-51.3c-47.8-7.5-97.6,3.5-138.8,28.1c-3.6,2.2-7.1,4.4-10.5,6.9c-1.5,1-1.8,3.4-0.2,2.5
	c31.3-18.4,60-27.8,96.1-31.3c20-1.9,40.2,0.8,59.8,4.4c11.5,2.2,23.3,6.1,34.2,10.2c23.1,8.7,44.2,21.2,64,35.9
	c-12.3,6.5-22.4,16-31,26.8c-21.5-19.9-48.3-33.5-75.7-42.8c-56.4-19.1-110-4.2-158,27.7c-30.3,20.2-54.3,50-66.8,83.8
	c-6.6,17.6-9.8,36.5-11.2,55.2c-9.2,4-18,7.7-25.7,14.4C345,490.5,345,489.3,345.1,488.2z"/>
<text transform="matrix(1.0957 0 0 1 332.9955 655.0981)" class="st0 st2 st3">T</text>
<text transform="matrix(1.0957 0 0 1 340.535 655.0981)" class="st0 st2 st3">M</text>
</svg>
